0
SECTION
2
HEADER
9
$ACADVER
1
AC1015
9
$DWGCODEPAGE
3
ANSI_1252
9
$HANDSEED
5
97
9
$ANGBASE
50
0.0
9
$ANGDIR
70
0
9
$ATTMODE
70
1
9
$AUNITS
70
0
9
$AUPREC
70
2
9
$CECOLOR
62
256
9
$CELTSCALE
40
1.0
9
$CELTYPE
6
ByLayer
9
$CELWEIGHT
370
-1
9
$CLAYER
8
0
9
$CMLJUST
70
0
9
$CMLSCALE
40
20.0
9
$CMLSTYLE
2
Standard
9
$DIMSTYLE
2
ISO-25
9
$TEXTSIZE
40
6.35
9
$TEXTSTYLE
7
Standard
9
$LUNITS
70
2
9
$LUPREC
70
2
9
$EXTNAMES
290
1
9
$INSBASE
10
0.0
20
0.0
30
0.0
9
$INSUNITS
70
4
9
$LTSCALE
40
1.0
9
$LWDISPLAY
290
1
9
$PDMODE
70
0
9
$PDSIZE
40
-1.0
9
$PLINEGEN
70
0
9
$PSLTSCALE
70
1
9
$TDCREATE
40
2458031.00159243
9
$TDUCREATE
40
2458031.16825909
9
$TDUPDATE
40
2458031.00163315
9
$TDUUPDATE
40
2458031.16829981
9
$TDINDWG
40
0.00000001157407
9
$DIMADEC
70
0
9
$DIMAUNIT
70
0
9
$DIMASZ
40
2.5
9
$DIMAZIN
70
3
9
$DIMSAH
70
0
9
$DIMBLK
1

9
$DIMLDRBLK
1

9
$DIMCEN
40
2.5
9
$DIMCLRD
70
0
9
$DIMCLRE
70
0
9
$DIMCLRT
70
0
9
$DIMDEC
70
2
9
$DIMDLE
40
0.0
9
$DIMDLI
40
3.75
9
$DIMDSEP
70
44
9
$DIMEXE
40
1.25
9
$DIMEXO
40
0.625
9
$DIMGAP
40
0.625
9
$DIMJUST
70
0
9
$DIMLFAC
40
1.0
9
$DIMLUNIT
70
2
9
$DIMLWD
70
-2
9
$DIMLWE
70
-2
9
$DIMPOST
1
<>
9
$DIMRND
40
0.0
9
$DIMSCALE
40
1.0
9
$DIMSD1
70
0
9
$DIMSD2
70
0
9
$DIMSE1
70
0
9
$DIMSE2
70
0
9
$DIMTAD
70
1
9
$DIMTIH
70
0
9
$DIMTOH
70
0
9
$DIMTXT
40
2.5
9
$DIMZIN
70
0
9
$DIMFRAC
70
0
9
$DIMLTYPE
6
ByBlock
9
$DIMLTEX1
6
ByBlock
9
$DIMLTEX2
6
ByBlock
0
ENDSEC
0
SECTION
2
CLASSES
0
CLASS
1
RASTERVARIABLES
2
AcDbRasterVariables
3
ISM
90
0
280
0
281
0
0
ENDSEC
0
SECTION
2
TABLES
0
TABLE
2
APPID
5
9
330
0
100
AcDbSymbolTable
70
4
0
APPID
5
12
330
9
100
AcDbSymbolTableRecord
100
AcDbRegAppTableRecord
2
ACAD
70
0
0
APPID
5
8C
330
9
100
AcDbSymbolTableRecord
100
AcDbRegAppTableRecord
2
AcCmTransparency
70
0
0
APPID
5
8D
330
9
100
AcDbSymbolTableRecord
100
AcDbRegAppTableRecord
2
GradientColor1ACI
70
0
0
APPID
5
8E
330
9
100
AcDbSymbolTableRecord
100
AcDbRegAppTableRecord
2
GradientColor2ACI
70
0
0
ENDTAB
0
TABLE
2
VPORT
5
8
330
0
100
AcDbSymbolTable
70
1
0
VPORT
5
83
330
8
100
AcDbSymbolTableRecord
100
AcDbViewportTableRecord
2
*Active
70
0
10
0.0
20
0.0
11
1.0
21
1.0
12
0.0
22
0.0
13
0.0
23
0.0
14
0.5
24
0.5
15
10.0
25
10.0
16
0.0
26
0.0
36
1.0
17
0.0
27
0.0
37
0.0
40
10.0
41
1.0
75
0
76
1
0
ENDTAB
0
TABLE
2
LTYPE
5
5
330
0
100
AcDbSymbolTable
70
8
0
LTYPE
5
14
330
5
100
AcDbSymbolTableRecord
100
AcDbLinetypeTableRecord
70
0
2
ByBlock
3

72
65
73
0
40
0.0
0
LTYPE
5
15
330
5
100
AcDbSymbolTableRecord
100
AcDbLinetypeTableRecord
70
0
2
ByLayer
3

72
65
73
0
40
0.0
0
LTYPE
5
16
330
5
100
AcDbSymbolTableRecord
100
AcDbLinetypeTableRecord
70
0
2
Continuous
3
Solid line
72
65
73
0
40
0.0
0
LTYPE
5
6E
330
5
100
AcDbSymbolTableRecord
100
AcDbLinetypeTableRecord
70
0
2
HIDDEN
3
Hidden __ __ __ __ __ __ __ __ __ __ __ __ __ __
72
65
73
2
40
1.905
49
1.27
74
0
49
-0.635
74
0
0
LTYPE
5
6F
330
5
100
AcDbSymbolTableRecord
100
AcDbLinetypeTableRecord
70
0
2
PHANTOM
3
Phantom ______  __  __  ______  __  __  ______
72
65
73
6
40
12.7
49
6.35
74
0
49
-1.27
74
0
49
1.27
74
0
49
-1.27
74
0
49
1.27
74
0
49
-1.27
74
0
0
LTYPE
5
70
330
5
100
AcDbSymbolTableRecord
100
AcDbLinetypeTableRecord
70
0
2
CENTER
3
Center ____ _ ____ _ ____ _ ____ _ ____ _ ____
72
65
73
4
40
10.16
49
6.35
74
0
49
-1.27
74
0
49
1.27
74
0
49
-1.27
74
0
0
LTYPE
5
71
330
5
100
AcDbSymbolTableRecord
100
AcDbLinetypeTableRecord
70
0
2
CENTERX2
3
Center (2x) ________  __  ________  __  _____
72
65
73
4
40
20.32
49
12.7
74
0
49
-2.54
74
0
49
2.54
74
0
49
-2.54
74
0
0
LTYPE
5
72
330
5
100
AcDbSymbolTableRecord
100
AcDbLinetypeTableRecord
70
0
2
DOT2
3
Dot (.5x) ........................................
72
65
73
2
40
0.635
49
0.0
74
0
49
-0.635
74
0
0
ENDTAB
0
TABLE
2
LAYER
5
2
330
0
100
AcDbSymbolTable
70
1
0
LAYER
5
10
330
2
100
AcDbSymbolTableRecord
100
AcDbLayerTableRecord
2
0
70
0
62
7
6
Continuous
290
1
370
-3
390
0
0
ENDTAB
0
TABLE
2
STYLE
5
3
330
0
100
AcDbSymbolTable
70
2
0
STYLE
5
11
330
3
100
AcDbSymbolTableRecord
100
AcDbTextStyleTableRecord
2
Standard
3
txt
70
0
71
0
40
0.0
41
1.0
42
0.0
50
0.0
0
STYLE
5
80
330
3
100
AcDbSymbolTableRecord
100
AcDbTextStyleTableRecord
2
SLDTEXTSTYLE0
3
TXT
70
0
71
0
40
0.0
41
0.7
42
0.0
50
0.0
0
ENDTAB
0
TABLE
2
DIMSTYLE
5
A
330
0
100
AcDbSymbolTable
70
2
100
AcDbDimStyleTable
0
DIMSTYLE
105
27
330
A
100
AcDbSymbolTableRecord
100
AcDbDimStyleTableRecord
2
ISO-25
70
0
3
<>
40
1.0
41
2.5
42
0.625
43
3.75
44
1.25
45
0.0
46
0.0
73
0
74
0
75
0
76
0
77
1
78
0
79
3
140
2.5
141
2.5
144
1.0
147
0.625
176
0
177
0
178
0
179
0
271
2
275
0
276
0
277
2
278
44
280
0
281
0
282
0
340
11
173
0
345
14
346
14
347
14
371
-2
372
-2
0
DIMSTYLE
105
8B
330
A
100
AcDbSymbolTableRecord
100
AcDbDimStyleTableRecord
2
Standard
70
0
3
<>
40
1.0
41
0.18
42
0.0625
43
0.38
44
0.18
45
0.0
46
0.0
73
0
74
0
75
0
76
0
77
1
78
0
79
0
140
0.18
141
0.09
144
1.0
147
0.09
176
0
177
0
178
0
179
0
271
2
275
0
276
0
277
2
278
46
280
0
281
0
282
0
340
11
173
0
345
14
346
14
347
14
371
-2
372
-2
0
ENDTAB
0
TABLE
2
VIEW
5
6
330
0
100
AcDbSymbolTable
70
0
0
ENDTAB
0
TABLE
2
UCS
5
7
330
0
100
AcDbSymbolTable
70
0
0
ENDTAB
0
TABLE
2
BLOCK_RECORD
5
1
330
0
100
AcDbSymbolTable
70
3
0
BLOCK_RECORD
5
1F
330
1
100
AcDbSymbolTableRecord
100
AcDbBlockTableRecord
2
*Model_Space
340
22
0
BLOCK_RECORD
5
1B
330
1
100
AcDbSymbolTableRecord
100
AcDbBlockTableRecord
2
*Paper_Space
340
1E
0
BLOCK_RECORD
5
23
330
1
100
AcDbSymbolTableRecord
100
AcDbBlockTableRecord
2
*Paper_Space0
340
26
0
ENDTAB
0
ENDSEC
0
SECTION
2
BLOCKS
0
BLOCK
5
20
330
1F
100
AcDbEntity
8
0
100
AcDbBlockBegin
2
*Model_Space
70
0
10
0.0
20
0.0
30
0.0
3
*Model_Space
0
ENDBLK
5
21
330
1F
100
AcDbEntity
8
0
100
AcDbBlockEnd
0
BLOCK
5
1C
330
1B
100
AcDbEntity
8
0
100
AcDbBlockBegin
2
*Paper_Space
70
0
10
0.0
20
0.0
30
0.0
3
*Paper_Space
0
ENDBLK
5
1D
330
1B
100
AcDbEntity
8
0
100
AcDbBlockEnd
0
BLOCK
5
24
330
23
100
AcDbEntity
67
1
8
0
100
AcDbBlockBegin
2
*Paper_Space0
70
0
10
0.0
20
0.0
30
0.0
3
*Paper_Space0
0
VIEWPORT
5
8A
330
23
100
AcDbEntity
67
1
8
0
62
256
6
ByLayer
370
-1
48
1.0
60
0
100
AcDbViewport
10
0.0
20
0.0
30
0.0
40
297.0
41
210.0
68
1
69
1
12
50.0
22
100.0
13
0.0
23
0.0
14
10.0
24
10.0
15
10.0
25
10.0
16
0.0
26
0.0
36
1.0
17
0.0
27
0.0
37
0.0
42
50.0
43
0.0
44
0.0
45
250.0
50
0.0
51
0.0
72
1000
90
819232
110
0.0
120
0.0
130
0.0
111
1.0
121
0.0
131
0.0
112
0.0
122
1.0
132
0.0
0
ENDBLK
5
25
330
23
100
AcDbEntity
8
0
100
AcDbBlockEnd
0
ENDSEC
0
SECTION
2
ENTITIES
0
VIEWPORT
5
89
330
1B
100
AcDbEntity
67
1
8
0
62
256
6
ByLayer
370
-1
48
1.0
60
0
100
AcDbViewport
10
0.0
20
0.0
30
0.0
40
297.0
41
210.0
68
1
69
1
12
50.0
22
100.0
13
0.0
23
0.0
14
10.0
24
10.0
15
10.0
25
10.0
16
0.0
26
0.0
36
1.0
17
0.0
27
0.0
37
0.0
42
50.0
43
0.0
44
0.0
45
250.0
50
0.0
51
0.0
72
1000
90
819232
110
0.0
120
0.0
130
0.0
111
1.0
121
0.0
131
0.0
112
0.0
122
1.0
132
0.0
0
SPLINE
5
73
330
1F
100
AcDbEntity
67
0
8
0
62
7
6
Continuous
370
15
48
1.0
60
0
100
AcDbSpline
70
2055
71
3
42
0.000000001
43
0.00000001
44
0.0000000001
40
0.0
40
0.0
40
0.0
40
0.0
40
0.17127153213432
40
0.32945435248292
40
0.53373699776354
40
0.68068800095955
40
0.84474637620123
40
1.0
40
1.0
40
1.0
40
1.0
41
1.0
10
16.6770740604034
20
40.1043923833511
30
0.0
41
1.0
10
17.9892995302656
20
34.9584749442483
30
0.0
41
1.0
10
39.9636197309818
20
26.5129801737179
30
0.0
41
1.0
10
-0.12456503454431
20
29.6685985222092
30
0.0
41
1.0
10
36.6075488351316
20
17.9364475653219
30
0.0
41
1.0
10
37.1322552630822
20
37.905309388373
30
0.0
41
1.0
10
30.1294362367553
20
55.6395318600453
30
0.0
41
1.0
10
15.4875724724959
20
44.7690457570559
30
0.0
41
1.0
10
16.6770740604034
20
40.1043923833511
30
0.0
0
CIRCLE
5
74
330
1F
100
AcDbEntity
67
0
8
0
62
7
6
Continuous
370
15
48
1.0
60
0
100
AcDbCircle
10
0.0
20
0.0
30
0.0
40
69.2554790269028
39
0.0
210
0.0
220
0.0
230
1.0
0
LINE
5
75
330
1F
100
AcDbEntity
67
0
8
0
62
7
6
Continuous
370
15
48
1.0
60
0
100
AcDbLine
10
-35.7365872723
20
36.1336604642
30
0.0
11
-52.1489458714
21
-4.6325205723
31
0.0
39
0.0
210
0.0
220
0.0
230
1.0
0
LINE
5
76
330
1F
100
AcDbEntity
67
0
8
0
62
7
6
Continuous
370
15
48
1.0
60
0
100
AcDbLine
10
21.7066678247
20
19.4565864038
30
0.0
11
-35.7365872723
21
36.1336604642
31
0.0
39
0.0
210
0.0
220
0.0
230
1.0
0
LINE
5
77
330
1F
100
AcDbEntity
67
0
8
0
62
7
6
Continuous
370
15
48
1.0
60
0
100
AcDbLine
10
-14.0299194476
20
-22.8978874004
30
0.0
11
21.7066678247
21
19.4565864038
31
0.0
39
0.0
210
0.0
220
0.0
230
1.0
0
LINE
5
78
330
1F
100
AcDbEntity
67
0
8
0
62
7
6
Continuous
370
15
48
1.0
60
0
100
AcDbLine
10
-52.1489458714
20
-4.6325205723
30
0.0
11
-14.0299194476
21
-22.8978874004
31
0.0
39
0.0
210
0.0
220
0.0
230
1.0
0
LINE
5
79
330
1F
100
AcDbEntity
67
0
8
0
62
7
6
Continuous
370
15
48
1.0
60
0
100
AcDbLine
10
28.2103655416
20
1.1221489445
30
0.0
11
11.0038605586
21
-22.1728116478
31
0.0
39
0.0
210
0.0
220
0.0
230
1.0
0
ARC
5
7A
330
1F
100
AcDbEntity
67
0
8
0
62
7
6
Continuous
370
15
48
1.0
60
0
100
AcDbCircle
39
0.0
10
36.0013027336
20
-4.6325205723
30
0.0
40
9.68581042440016
210
0.0
220
0.0
230
1.0
100
AcDbArc
50
323.5490768204
51
143.5490768204
0
LINE
5
7B
330
1F
100
AcDbEntity
67
0
8
0
62
7
6
Continuous
370
15
48
1.0
60
0
100
AcDbLine
10
26.5857349426
20
-33.6821506815
30
0.0
11
43.7922399256
21
-10.3871900892
31
0.0
39
0.0
210
0.0
220
0.0
230
1.0
0
ARC
5
7C
330
1F
100
AcDbEntity
67
0
8
0
62
7
6
Continuous
370
15
48
1.0
60
0
100
AcDbCircle
39
0.0
10
18.7947977506
20
-27.9274811646
30
0.0
40
9.68581042440016
210
0.0
220
0.0
230
1.0
100
AcDbArc
50
143.5490768204
51
323.5490768204
0
ELLIPSE
5
7D
330
1F
100
AcDbEntity
67
0
8
0
62
7
6
Continuous
370
15
48
1.0
60
0
100
AcDbEllipse
10
0.0
20
47.5164252991
30
0.0
11
11.0038605586161
21
0.0
31
0.0
210
0.0
220
0.0
230
1.0
40
0.9382073623
41
0.0
42
6.28318530717959
0
LINE
5
7E
330
1F
100
AcDbEntity
67
0
8
0
62
7
6
Continuous
370
15
48
1.0
60
0
100
AcDbLine
10
-11.0038605586
20
-36.3983759255
30
0.0
11
-28.5892698178
21
-44.0751243025
31
0.0
39
0.0
210
0.0
220
0.0
230
1.0
0
ARC
5
7F
330
1F
100
AcDbEntity
67
0
8
0
62
7
6
Continuous
370
15
48
1.0
60
0
100
AcDbCircle
39
0.0
10
-18.6350915044
20
-42.89738051
30
0.0
40
10.0236094465657
210
0.0
220
0.0
230
1.0
100
AcDbArc
50
186.7476678261
51
40.4187962317
0
MTEXT
5
81
330
1F
100
AcDbEntity
67
0
8
0
62
7
6
Continuous
370
-1
48
1.0
60
0
100
AcDbMText
10
-69.2554790269
20
-70.2750454186
30
0.0
210
0.0
220
0.0
230
1.0
1

40
4.83362
41
0.0
44
1.0
50
0.0
71
1
72
5
7
SLDTEXTSTYLE0
0
MTEXT
5
82
330
1F
100
AcDbEntity
67
0
8
0
62
7
6
Continuous
370
-1
48
1.0
60
0
100
AcDbMText
10
-69.2554790269
20
-77.5254754186
30
0.0
210
0.0
220
0.0
230
1.0
1

40
4.83362
41
0.0
44
1.0
50
0.0
71
1
72
5
7
SLDTEXTSTYLE0
0
ENDSEC
0
SECTION
2
OBJECTS
0
DICTIONARY
5
8F
330
0
100
AcDbDictionary
280
0
281
1
3
ACAD_GROUP
350
90
3
ACAD_LAYOUT
350
91
3
ACAD_MLINESTYLE
350
95
0
DICTIONARY
5
90
330
8F
100
AcDbDictionary
280
0
281
1
0
DICTIONARY
5
91
330
8F
100
AcDbDictionary
280
0
281
1
3
Layout1
350
1E
3
Layout2
350
26
3
Model
350
22
0
DICTIONARY
5
95
330
8F
100
AcDbDictionary
280
0
281
1
3
Standard
350
18
0
LAYOUT
5
1E
330
91
100
AcDbPlotSettings
1

2
none_device
4

6

40
0.0
41
0.0
42
0.0
43
0.0
44
0.0
45
0.0
46
0.0
47
0.0
48
0.0
49
0.0
140
0.0
141
0.0
142
1.0
143
1.0
70
688
72
1
73
0
74
5
7

75
16
147
1.0
148
0.0
149
0.0
100
AcDbLayout
1
Layout1
70
1
71
1
10
0.0
20
-7.5
11
420.0
21
297.0
12
0.0
22
0.0
32
0.0
14
100000000000000000000.0
24
100000000000000000000.0
34
100000000000000000000.0
15
-100000000000000000000.0
25
-100000000000000000000.0
35
-100000000000000000000.0
146
0.0
13
0.0
23
0.0
33
0.0
16
1.0
26
0.0
36
0.0
17
0.0
27
1.0
37
0.0
76
0
330
1B
0
LAYOUT
5
26
330
91
100
AcDbPlotSettings
1

2
none_device
4

6

40
0.0
41
0.0
42
0.0
43
0.0
44
0.0
45
0.0
46
0.0
47
0.0
48
0.0
49
0.0
140
0.0
141
0.0
142
1.0
143
1.0
70
688
72
1
73
0
74
5
7

75
16
147
1.0
148
0.0
149
0.0
100
AcDbLayout
1
Layout2
70
1
71
2
10
0.0
20
-7.5
11
0.0
21
0.0
12
0.0
22
0.0
32
0.0
14
0.0
24
0.0
34
0.0
15
0.0
25
0.0
35
0.0
146
0.0
13
0.0
23
0.0
33
0.0
16
1.0
26
0.0
36
0.0
17
0.0
27
1.0
37
0.0
76
0
330
23
0
LAYOUT
5
22
330
91
100
AcDbPlotSettings
1

2
none_device
4
ANSI_A_(11.00_x_8.50_Inches)
6

40
6.35
41
19.05
42
6.35000508
43
19.05000254
44
279.4
45
215.9
46
0.0
47
0.0
48
0.0
49
0.0
140
0.0
141
0.0
142
0.060753316
143
1.0
70
1696
72
0
73
0
74
5
7

75
16
147
0.060753316
148
-1300.4909072572
149
0.0
100
AcDbLayout
1
Model
70
1
71
3
10
0.0
20
-7.5
11
420.0
21
297.0
12
0.0
22
0.0
32
0.0
14
-69.2554790269
24
-69.2554790269
34
0.0
15
69.2554790269
25
69.2554790269
35
0.0
146
0.0
13
0.0
23
0.0
33
0.0
16
1.0
26
0.0
36
0.0
17
0.0
27
1.0
37
0.0
76
0
330
1F
0
MLINESTYLE
5
18
330
95
100
AcDbMlineStyle
2
Standard
70
0
3

62
256
51
90.0
52
90.0
71
2
49
-0.5
62
256
6
ByLayer
49
0.5
62
256
6
ByLayer
0
ENDSEC
0
EOF
