0
SECTION
2
HEADER
9
$ACADVER
1
AC1015
9
$DWGCODEPAGE
3
ANSI_1252
9
$HANDSEED
5
C0
9
$ANGBASE
50
0.0
9
$ANGDIR
70
0
9
$ATTMODE
70
1
9
$AUNITS
70
0
9
$AUPREC
70
2
9
$CECOLOR
62
256
9
$CELTSCALE
40
1.0
9
$CELTYPE
6
ByLayer
9
$CELWEIGHT
370
-1
9
$CLAYER
8
0
9
$CMLJUST
70
0
9
$CMLSCALE
40
1.0
9
$CMLSTYLE
2
Standard
9
$DIMSTYLE
2
Standard
9
$TEXTSIZE
40
0.25
9
$TEXTSTYLE
7
Standard
9
$LUNITS
70
2
9
$LUPREC
70
2
9
$EXTNAMES
290
1
9
$INSBASE
10
0.0
20
0.0
30
0.0
9
$INSUNITS
70
1
9
$LTSCALE
40
1.0
9
$LWDISPLAY
290
1
9
$PDMODE
70
0
9
$PDSIZE
40
-1.0
9
$PLINEGEN
70
0
9
$PSLTSCALE
70
1
9
$TDCREATE
40
2457885.73277486
9
$TDUCREATE
40
2457885.89944153
9
$TDUPDATE
40
2457885.73279983
9
$TDUUPDATE
40
2457885.89946649
9
$TDINDWG
40
0.0
9
$DIMADEC
70
0
9
$DIMAUNIT
70
0
9
$DIMASZ
40
0.18
9
$DIMAZIN
70
3
9
$DIMSAH
70
0
9
$DIMBLK
1

9
$DIMLDRBLK
1

9
$DIMCEN
40
0.09
9
$DIMCLRD
70
0
9
$DIMCLRE
70
0
9
$DIMCLRT
70
0
9
$DIMDEC
70
2
9
$DIMDLE
40
0.0
9
$DIMDLI
40
0.38
9
$DIMDSEP
70
46
9
$DIMEXE
40
0.18
9
$DIMEXO
40
0.0625
9
$DIMGAP
40
0.09
9
$DIMJUST
70
0
9
$DIMLFAC
40
1.0
9
$DIMLUNIT
70
2
9
$DIMLWD
70
-2
9
$DIMLWE
70
-2
9
$DIMPOST
1
<>
9
$DIMRND
40
0.0
9
$DIMSCALE
40
1.0
9
$DIMSD1
70
0
9
$DIMSD2
70
0
9
$DIMSE1
70
0
9
$DIMSE2
70
0
9
$DIMTAD
70
1
9
$DIMTIH
70
0
9
$DIMTOH
70
0
9
$DIMTXT
40
0.18
9
$DIMZIN
70
0
9
$DIMFRAC
70
0
9
$DIMLTYPE
6
ByBlock
9
$DIMLTEX1
6
ByBlock
9
$DIMLTEX2
6
ByBlock
0
ENDSEC
0
SECTION
2
CLASSES
0
CLASS
1
RASTERVARIABLES
2
AcDbRasterVariables
3
ISM
90
0
280
0
281
0
0
ENDSEC
0
SECTION
2
TABLES
0
TABLE
2
APPID
5
9
330
0
100
AcDbSymbolTable
70
4
0
APPID
5
12
330
9
100
AcDbSymbolTableRecord
100
AcDbRegAppTableRecord
2
ACAD
70
0
0
APPID
5
A7
330
9
100
AcDbSymbolTableRecord
100
AcDbRegAppTableRecord
2
AcCmTransparency
70
0
0
APPID
5
A8
330
9
100
AcDbSymbolTableRecord
100
AcDbRegAppTableRecord
2
GradientColor1ACI
70
0
0
APPID
5
A9
330
9
100
AcDbSymbolTableRecord
100
AcDbRegAppTableRecord
2
GradientColor2ACI
70
0
0
ENDTAB
0
TABLE
2
VPORT
5
8
330
0
100
AcDbSymbolTable
70
1
0
VPORT
5
B2
330
8
100
AcDbSymbolTableRecord
100
AcDbViewportTableRecord
2
*Active
70
0
10
0.0
20
0.0
11
1.0
21
1.0
12
0.0
22
0.0
13
0.0
23
0.0
14
0.5
24
0.5
15
10.0
25
10.0
16
0.0
26
0.0
36
1.0
17
0.0
27
0.0
37
0.0
40
10.0
41
1.0
75
0
76
1
0
ENDTAB
0
TABLE
2
LTYPE
5
5
330
0
100
AcDbSymbolTable
70
8
0
LTYPE
5
14
330
5
100
AcDbSymbolTableRecord
100
AcDbLinetypeTableRecord
70
0
2
ByBlock
3

72
65
73
0
40
0.0
0
LTYPE
5
15
330
5
100
AcDbSymbolTableRecord
100
AcDbLinetypeTableRecord
70
0
2
ByLayer
3

72
65
73
0
40
0.0
0
LTYPE
5
16
330
5
100
AcDbSymbolTableRecord
100
AcDbLinetypeTableRecord
70
0
2
Continuous
3
Solid line
72
65
73
0
40
0.0
0
LTYPE
5
6E
330
5
100
AcDbSymbolTableRecord
100
AcDbLinetypeTableRecord
70
0
2
HIDDEN
3
Hidden __ __ __ __ __ __ __ __ __ __ __ __ __ __
72
65
73
2
40
0.075
49
0.05
74
0
49
-0.025
74
0
0
LTYPE
5
6F
330
5
100
AcDbSymbolTableRecord
100
AcDbLinetypeTableRecord
70
0
2
PHANTOM
3
Phantom ______  __  __  ______  __  __  ______
72
65
73
6
40
0.5
49
0.25
74
0
49
-0.05
74
0
49
0.05
74
0
49
-0.05
74
0
49
0.05
74
0
49
-0.05
74
0
0
LTYPE
5
70
330
5
100
AcDbSymbolTableRecord
100
AcDbLinetypeTableRecord
70
0
2
CENTER
3
Center ____ _ ____ _ ____ _ ____ _ ____ _ ____
72
65
73
4
40
0.4
49
0.25
74
0
49
-0.05
74
0
49
0.05
74
0
49
-0.05
74
0
0
LTYPE
5
71
330
5
100
AcDbSymbolTableRecord
100
AcDbLinetypeTableRecord
70
0
2
CENTERX2
3
Center (2x) ________  __  ________  __  _____
72
65
73
4
40
0.8
49
0.5
74
0
49
-0.1
74
0
49
0.1
74
0
49
-0.1
74
0
0
LTYPE
5
72
330
5
100
AcDbSymbolTableRecord
100
AcDbLinetypeTableRecord
70
0
2
DOT2
3
Dot (.5x) ........................................
72
65
73
2
40
0.025
49
0.0
74
0
49
-0.025
74
0
0
ENDTAB
0
TABLE
2
LAYER
5
2
330
0
100
AcDbSymbolTable
70
1
0
LAYER
5
10
330
2
100
AcDbSymbolTableRecord
100
AcDbLayerTableRecord
2
0
70
0
62
7
6
Continuous
290
1
370
-3
390
0
0
ENDTAB
0
TABLE
2
STYLE
5
3
330
0
100
AcDbSymbolTable
70
2
0
STYLE
5
11
330
3
100
AcDbSymbolTableRecord
100
AcDbTextStyleTableRecord
2
Standard
3
txt
70
0
71
0
40
0.0
41
1.0
42
0.0
50
0.0
0
STYLE
5
9C
330
3
100
AcDbSymbolTableRecord
100
AcDbTextStyleTableRecord
2
SLDTEXTSTYLE0
3
TXT
70
0
71
0
40
0.0
41
0.7
42
0.0
50
0.0
0
ENDTAB
0
TABLE
2
DIMSTYLE
5
A
330
0
100
AcDbSymbolTable
70
1
100
AcDbDimStyleTable
0
DIMSTYLE
105
27
330
A
100
AcDbSymbolTableRecord
100
AcDbDimStyleTableRecord
2
Standard
70
0
3
<>
40
1.0
41
0.18
42
0.0625
43
0.38
44
0.18
45
0.0
46
0.0
73
0
74
0
75
0
76
0
77
1
78
0
79
3
140
0.18
141
0.09
144
1.0
147
0.09
176
0
177
0
178
0
179
0
271
2
275
0
276
0
277
2
278
46
280
0
281
0
282
0
340
11
173
0
345
14
346
14
347
14
371
-2
372
-2
0
ENDTAB
0
TABLE
2
VIEW
5
6
330
0
100
AcDbSymbolTable
70
0
0
ENDTAB
0
TABLE
2
UCS
5
7
330
0
100
AcDbSymbolTable
70
0
0
ENDTAB
0
TABLE
2
BLOCK_RECORD
5
1
330
0
100
AcDbSymbolTable
70
3
0
BLOCK_RECORD
5
1F
330
1
100
AcDbSymbolTableRecord
100
AcDbBlockTableRecord
2
*Model_Space
340
22
0
BLOCK_RECORD
5
1B
330
1
100
AcDbSymbolTableRecord
100
AcDbBlockTableRecord
2
*Paper_Space
340
1E
0
BLOCK_RECORD
5
23
330
1
100
AcDbSymbolTableRecord
100
AcDbBlockTableRecord
2
*Paper_Space0
340
26
0
ENDTAB
0
ENDSEC
0
SECTION
2
BLOCKS
0
BLOCK
5
20
330
1F
100
AcDbEntity
8
0
100
AcDbBlockBegin
2
*Model_Space
70
0
10
0.0
20
0.0
30
0.0
3
*Model_Space
0
ENDBLK
5
21
330
1F
100
AcDbEntity
8
0
100
AcDbBlockEnd
0
BLOCK
5
1C
330
1B
100
AcDbEntity
8
0
100
AcDbBlockBegin
2
*Paper_Space
70
0
10
0.0
20
0.0
30
0.0
3
*Paper_Space
0
ENDBLK
5
1D
330
1B
100
AcDbEntity
8
0
100
AcDbBlockEnd
0
BLOCK
5
24
330
23
100
AcDbEntity
67
1
8
0
100
AcDbBlockBegin
2
*Paper_Space0
70
0
10
0.0
20
0.0
30
0.0
3
*Paper_Space0
0
VIEWPORT
5
A6
330
23
100
AcDbEntity
67
1
8
0
62
256
6
ByLayer
370
-1
48
1.0
60
0
100
AcDbViewport
10
0.0
20
0.0
30
0.0
40
297.0
41
210.0
68
1
69
1
12
50.0
22
100.0
13
0.0
23
0.0
14
10.0
24
10.0
15
10.0
25
10.0
16
0.0
26
0.0
36
1.0
17
0.0
27
0.0
37
0.0
42
50.0
43
0.0
44
0.0
45
250.0
50
0.0
51
0.0
72
1000
90
819232
110
0.0
120
0.0
130
0.0
111
1.0
121
0.0
131
0.0
112
0.0
122
1.0
132
0.0
0
ENDBLK
5
25
330
23
100
AcDbEntity
8
0
100
AcDbBlockEnd
0
ENDSEC
0
SECTION
2
ENTITIES
0
VIEWPORT
5
A5
330
1B
100
AcDbEntity
67
1
8
0
62
256
6
ByLayer
370
-1
48
1.0
60
0
100
AcDbViewport
10
0.0
20
0.0
30
0.0
40
297.0
41
210.0
68
1
69
1
12
50.0
22
100.0
13
0.0
23
0.0
14
10.0
24
10.0
15
10.0
25
10.0
16
0.0
26
0.0
36
1.0
17
0.0
27
0.0
37
0.0
42
50.0
43
0.0
44
0.0
45
250.0
50
0.0
51
0.0
72
1000
90
819232
110
0.0
120
0.0
130
0.0
111
1.0
121
0.0
131
0.0
112
0.0
122
1.0
132
0.0
0
SPLINE
5
73
330
1F
100
AcDbEntity
67
0
8
0
62
7
6
Continuous
370
15
48
1.0
60
0
100
AcDbSpline
70
4
71
3
42
0.000000001
43
0.00000001
44
0.0000000001
40
0.0
40
0.0
40
0.0
40
0.0
40
0.5
40
0.5
40
1.0
40
1.0
40
1.0
40
1.0
41
1.0
10
-0.78170492243641
20
1.9397219184957
30
0.0
41
1.0
10
-1.18871422542161
20
1.81334541520521
30
0.0
41
1.0
10
-1.21345179508169
20
1.78493444517632
30
0.0
41
1.0
10
-1.32485874888029
20
1.66742276391324
30
0.0
41
1.0
10
-1.3532178958436
20
1.63982749530784
30
0.0
41
1.0
10
-1.28690164922069
20
1.40684210526298
30
0.0
0
SPLINE
5
74
330
1F
100
AcDbEntity
67
0
8
0
62
7
6
Continuous
370
15
48
1.0
60
0
100
AcDbSpline
70
4
71
3
42
0.000000001
43
0.00000001
44
0.0000000001
40
0.0
40
0.0
40
0.0
40
0.0
40
0.25
40
0.25
40
0.5
40
0.5
40
1.0
40
1.0
40
1.0
40
1.0
41
1.0
10
-1.28690164922069
20
1.40684210526298
30
0.0
41
1.0
10
-1.03877421458246
20
1.51819035780549
30
0.0
41
1.0
10
-0.98774523261144
20
1.54594872921343
30
0.0
41
1.0
10
-0.87583140280018
20
1.6094931699777
30
0.0
41
1.0
10
-0.8464950946209
20
1.6315989977876
30
0.0
41
1.0
10
-0.77936473977411
20
1.70240787095806
30
0.0
41
1.0
10
-0.7507032214381
20
1.67167094190936
30
0.0
41
1.0
10
-0.78170492243641
20
1.9397219184957
30
0.0
0
LINE
5
75
330
1F
100
AcDbEntity
67
0
8
0
62
7
6
Continuous
370
15
48
1.0
60
0
100
AcDbLine
10
-0.6817117965
20
-1.1190818765
30
0.0
11
-0.9876524496
21
-0.9625928462
31
0.0
39
0.0
210
0.0
220
0.0
230
1.0
0
LINE
5
76
330
1F
100
AcDbEntity
67
0
8
0
62
7
6
Continuous
370
15
48
1.0
60
0
100
AcDbLine
10
-0.6133089699
20
-1.4558452253
30
0.0
11
-0.6817117965
21
-1.1190818765
31
0.0
39
0.0
210
0.0
220
0.0
230
1.0
0
LINE
5
77
330
1F
100
AcDbEntity
67
0
8
0
62
7
6
Continuous
370
15
48
1.0
60
0
100
AcDbLine
10
-0.8339526933
20
-1.7192932223
30
0.0
11
-0.6133089699
21
-1.4558452253
31
0.0
39
0.0
210
0.0
220
0.0
230
1.0
0
LINE
5
78
330
1F
100
AcDbEntity
67
0
8
0
62
7
6
Continuous
370
15
48
1.0
60
0
100
AcDbLine
10
-1.1774937427
20
-1.7110441523
30
0.0
11
-0.8339526933
21
-1.7192932223
31
0.0
39
0.0
210
0.0
220
0.0
230
1.0
0
LINE
5
79
330
1F
100
AcDbEntity
67
0
8
0
62
7
6
Continuous
370
15
48
1.0
60
0
100
AcDbLine
10
-1.385238701
20
-1.4373097334
30
0.0
11
-1.1774937427
21
-1.7110441523
31
0.0
39
0.0
210
0.0
220
0.0
230
1.0
0
LINE
5
7A
330
1F
100
AcDbEntity
67
0
8
0
62
7
6
Continuous
370
15
48
1.0
60
0
100
AcDbLine
10
-1.3007513773
20
-1.1042175661
30
0.0
11
-1.385238701
21
-1.4373097334
31
0.0
39
0.0
210
0.0
220
0.0
230
1.0
0
LINE
5
7B
330
1F
100
AcDbEntity
67
0
8
0
62
7
6
Continuous
370
15
48
1.0
60
0
100
AcDbLine
10
-0.9876524496
20
-0.9625928462
30
0.0
11
-1.3007513773
21
-1.1042175661
31
0.0
39
0.0
210
0.0
220
0.0
230
1.0
0
ELLIPSE
5
7C
330
1F
100
AcDbEntity
67
0
8
0
62
7
6
Continuous
370
15
48
1.0
60
0
100
AcDbEllipse
10
-1.4494048831
20
-0.2489473684
30
0.0
11
-0.41480564318773
21
0.47415857250124
31
0.0
210
0.0
220
0.0
230
1.0
40
0.4156195722
41
-1.09217397277474
42
-2.87279813783884
0
SPLINE
5
7D
330
1F
100
AcDbEntity
67
0
8
0
62
7
6
Continuous
370
15
48
1.0
60
0
100
AcDbSpline
70
4
71
4
42
0.000000001
43
0.00000001
44
0.0000000001
40
0.0
40
0.0
40
0.0
40
0.0
40
0.0
40
1.0
40
1.0
40
1.0
40
1.0
40
1.0
41
1.0
10
0.6106709610374
20
-1.94912635770444
30
0.0
41
1.0
10
1.00996228874316
20
-1.45977713244868
30
0.0
41
1.0
10
-1.09468935728842
20
-0.13544019591184
30
0.0
41
1.0
10
-1.09468935728842
20
-0.25633402414342
30
0.0
41
1.0
10
-1.46552150837018
20
0.1224582213803
30
0.0
0
ELLIPSE
5
7E
330
1F
100
AcDbEntity
67
0
8
0
62
7
6
Continuous
370
15
48
1.0
60
0
100
AcDbEllipse
10
0.3821052632
20
-1.5975995339
30
0.0
11
-0.439350284603
21
0.30357911301751
31
0.0
210
0.0
220
0.0
230
1.0
40
0.4338942959
41
0.0
42
2.38373982869133
0
ELLIPSE
5
7F
330
1F
100
AcDbEntity
67
0
8
0
62
7
6
Continuous
370
15
48
1.0
60
0
100
AcDbEllipse
10
-0.5442105263
20
-1.1289473684
30
0.0
11
-0.45294800659499
21
0.46865216551604
31
0.0
210
0.0
220
0.0
230
1.0
40
0.5067604795
41
-2.34808826366549
42
0.0
0
CIRCLE
5
80
330
1F
100
AcDbEntity
67
0
8
0
62
7
6
Continuous
370
15
48
1.0
60
0
100
AcDbCircle
10
-1.2869016492
20
0.7117818856
30
0.0
40
0.48657068155073
39
0.0
210
0.0
220
0.0
230
1.0
0
ELLIPSE
5
81
330
1F
100
AcDbEntity
67
0
8
0
62
7
6
Continuous
370
15
48
1.0
60
0
100
AcDbEllipse
10
0.4284210526
20
1.4068421053
30
0.0
11
-0.18224990840521
21
-0.59846929381619
31
0.0
210
0.0
220
0.0
230
1.0
40
0.3934934782
41
0.0
42
6.28318530717959
0
ARC
5
82
330
1F
100
AcDbEntity
67
0
8
0
62
7
6
Continuous
370
15
48
1.0
60
0
100
AcDbCircle
39
0.0
10
0.4284210526
20
1.4068421053
30
0.0
40
0.80837281144615
210
0.0
220
0.0
230
1.0
100
AcDbArc
50
253.0631049514
51
73.0631049514
0
ARC
5
83
330
1F
100
AcDbEntity
67
0
8
0
62
7
6
Continuous
370
15
48
1.0
60
0
100
AcDbCircle
39
0.0
10
0.0
20
0.0
30
0.0
40
2.27900169307443
210
0.0
220
0.0
230
1.0
100
AcDbArc
50
73.0631049514
51
0.0
0
ARC
5
84
330
1F
100
AcDbEntity
67
0
8
0
62
7
6
Continuous
370
15
48
1.0
60
0
100
AcDbCircle
39
0.0
10
1.4706288816
20
0.0
30
0.0
40
0.80837281144615
210
0.0
220
0.0
230
1.0
100
AcDbArc
50
0.0
51
180.0
0
ARC
5
85
330
1F
100
AcDbEntity
67
0
8
0
62
7
6
Continuous
370
15
48
1.0
60
0
100
AcDbCircle
39
0.0
10
0.0
20
0.0
30
0.0
40
0.66225607018213
210
0.0
220
0.0
230
1.0
100
AcDbArc
50
73.0631049514
51
0.0
0
ELLIPSE
5
86
330
1F
100
AcDbEntity
67
0
8
0
62
7
6
Continuous
370
15
48
1.0
60
0
100
AcDbEllipse
10
1.4706288816
20
0.0
30
0.0
11
-0.62536572373354
21
0.0
31
0.0
210
0.0
220
0.0
230
1.0
40
0.3980828481
41
0.0
42
6.28318530717959
0
LINE
5
87
330
1F
100
AcDbEntity
67
0
8
0
62
7
6
Continuous
370
15
48
1.0
60
0
100
AcDbLine
10
-0.8684210526
20
1.4763157895
30
0.0
11
-0.5442105263
21
0.6335315018
31
0.0
39
0.0
210
0.0
220
0.0
230
1.0
0
LINE
5
88
330
1F
100
AcDbEntity
67
0
8
0
62
7
6
Continuous
370
15
48
1.0
60
0
100
AcDbLine
10
-0.4515789474
20
1.8096263929
30
0.0
11
-0.8684210526
21
1.4763157895
31
0.0
39
0.0
210
0.0
220
0.0
230
1.0
0
LINE
5
89
330
1F
100
AcDbEntity
67
0
8
0
62
7
6
Continuous
370
15
48
1.0
60
0
100
AcDbLine
10
-0.1273684211
20
0.9668421053
30
0.0
11
-0.4515789474
21
1.8096263929
31
0.0
39
0.0
210
0.0
220
0.0
230
1.0
0
LINE
5
8A
330
1F
100
AcDbEntity
67
0
8
0
62
7
6
Continuous
370
15
48
1.0
60
0
100
AcDbLine
10
-0.5442105263
20
0.6335315018
30
0.0
11
-0.1273684211
21
0.9668421053
31
0.0
39
0.0
210
0.0
220
0.0
230
1.0
0
LINE
5
8B
330
1F
100
AcDbEntity
67
0
8
0
62
7
6
Continuous
370
15
48
1.0
60
0
100
AcDbLine
10
0.3821052632
20
-0.7468421053
30
0.0
11
1.4706288816
21
-1.0316318496
31
0.0
39
0.0
210
0.0
220
0.0
230
1.0
0
LINE
5
8C
330
1F
100
AcDbEntity
67
0
8
0
62
7
6
Continuous
370
15
48
1.0
60
0
100
AcDbLine
10
0.8452631579
20
-0.4805263158
30
0.0
11
0.3821052632
21
-0.7468421053
31
0.0
39
0.0
210
0.0
220
0.0
230
1.0
0
LINE
5
8D
330
1F
100
AcDbEntity
67
0
8
0
62
7
6
Continuous
370
15
48
1.0
60
0
100
AcDbLine
10
1.9337867764
20
-0.7653160601
30
0.0
11
0.8452631579
21
-0.4805263158
31
0.0
39
0.0
210
0.0
220
0.0
230
1.0
0
LINE
5
8E
330
1F
100
AcDbEntity
67
0
8
0
62
7
6
Continuous
370
15
48
1.0
60
0
100
AcDbLine
10
1.4706288816
20
-1.0316318496
30
0.0
11
1.9337867764
21
-0.7653160601
31
0.0
39
0.0
210
0.0
220
0.0
230
1.0
0
CIRCLE
5
8F
330
1F
100
AcDbEntity
67
0
8
0
62
7
6
Continuous
370
15
48
1.0
60
0
100
AcDbCircle
10
0.0
20
2.0053113991
30
0.0
40
0.09701171853011
39
0.0
210
0.0
220
0.0
230
1.0
0
LINE
5
90
330
1F
100
AcDbEntity
67
0
8
0
62
7
6
Continuous
370
15
48
1.0
60
0
100
AcDbLine
10
-1.5298898917
20
-0.8853420785
30
0.0
11
-1.8885267443
21
-0.3440979446
31
0.0
39
0.0
210
0.0
220
0.0
230
1.0
0
ARC
5
91
330
1F
100
AcDbEntity
67
0
8
0
62
7
6
Continuous
370
15
48
1.0
60
0
100
AcDbCircle
39
0.0
10
-1.6464744662
20
-0.9625928462
30
0.0
40
0.13985579763658
210
0.0
220
0.0
230
1.0
100
AcDbArc
50
213.529079476
51
33.529079476
0
LINE
5
92
330
1F
100
AcDbEntity
67
0
8
0
62
7
6
Continuous
370
15
48
1.0
60
0
100
AcDbLine
10
-2.1216958934
20
-0.4985994801
30
0.0
11
-1.7630590407
21
-1.0398436139
31
0.0
39
0.0
210
0.0
220
0.0
230
1.0
0
ARC
5
93
330
1F
100
AcDbEntity
67
0
8
0
62
7
6
Continuous
370
15
48
1.0
60
0
100
AcDbCircle
39
0.0
10
-2.0051113189
20
-0.4213487124
30
0.0
40
0.13985579763658
210
0.0
220
0.0
230
1.0
100
AcDbArc
50
33.529079476
51
213.529079476
0
LINE
5
94
330
1F
100
AcDbEntity
67
0
8
0
62
7
6
Continuous
370
15
48
1.0
60
0
100
AcDbLine
10
-0.5283158637
20
-1.1453581812
30
0.0
11
-0.3391775321
21
-2.1001678779
31
0.0
39
0.0
210
0.0
220
0.0
230
1.0
0
ARC
5
95
330
1F
100
AcDbEntity
67
0
8
0
62
7
6
Continuous
370
15
48
1.0
60
0
100
AcDbCircle
39
0.0
10
-0.401285296
20
-1.1201946856
30
0.0
40
0.12949890592948
210
0.0
220
0.0
230
1.0
100
AcDbArc
50
11.2046725732
51
191.2046725732
0
LINE
5
96
330
1F
100
AcDbEntity
67
0
8
0
62
7
6
Continuous
370
15
48
1.0
60
0
100
AcDbLine
10
-0.0851163967
20
-2.0498408866
30
0.0
11
-0.2742547283
21
-1.09503119
31
0.0
39
0.0
210
0.0
220
0.0
230
1.0
0
ARC
5
97
330
1F
100
AcDbEntity
67
0
8
0
62
7
6
Continuous
370
15
48
1.0
60
0
100
AcDbCircle
39
0.0
10
-0.2121469644
20
-2.0750043823
30
0.0
40
0.12949890592948
210
0.0
220
0.0
230
1.0
100
AcDbArc
50
191.2046725732
51
11.2046725732
0
ARC
5
98
330
1F
100
AcDbEntity
67
0
8
0
62
7
6
Continuous
370
15
48
1.0
60
0
100
AcDbCircle
39
0.0
10
0.7173380369
20
-1.5461476475
30
0.0
40
0.58923511941603
210
0.0
220
0.0
230
1.0
100
AcDbArc
50
327.8135736273
51
96.9614378942
0
ARC
5
99
330
1F
100
AcDbEntity
67
0
8
0
62
7
6
Continuous
370
15
48
1.0
60
0
100
AcDbCircle
39
0.0
10
1.1019621071
20
-1.7882311163
30
0.0
40
0.13476830953683
210
0.0
220
0.0
230
1.0
100
AcDbArc
50
147.8135736273
51
327.8135736273
0
ARC
5
9A
330
1F
100
AcDbEntity
67
0
8
0
62
7
6
Continuous
370
15
48
1.0
60
0
100
AcDbCircle
39
0.0
10
0.7173380369
20
-1.5461476475
30
0.0
40
0.31969850034238
210
0.0
220
0.0
230
1.0
100
AcDbArc
50
327.8135736273
51
96.9614378942
0
ARC
5
9B
330
1F
100
AcDbEntity
67
0
8
0
62
7
6
Continuous
370
15
48
1.0
60
0
100
AcDbCircle
39
0.0
10
0.6622560702
20
-1.09503119
30
0.0
40
0.13476830953683
210
0.0
220
0.0
230
1.0
100
AcDbArc
50
96.9614378942
51
276.9614378942
0
MTEXT
5
9D
330
1F
100
AcDbEntity
67
0
8
0
62
7
6
Continuous
370
-1
48
1.0
60
0
100
AcDbMText
10
-2.2790016931
20
-2.3191421022
30
0.0
210
0.0
220
0.0
230
1.0
1

40
0.1903
41
0.0
44
1.0
50
0.0
71
1
72
5
7
SLDTEXTSTYLE0
0
MTEXT
5
9E
330
1F
100
AcDbEntity
67
0
8
0
62
7
6
Continuous
370
-1
48
1.0
60
0
100
AcDbMText
10
-2.2790016931
20
-2.6045921022
30
0.0
210
0.0
220
0.0
230
1.0
1

40
0.1903
41
0.0
44
1.0
50
0.0
71
1
72
5
7
SLDTEXTSTYLE0
0
ENDSEC
0
SECTION
2
OBJECTS
0
DICTIONARY
5
B8
330
0
100
AcDbDictionary
280
0
281
1
3
ACAD_GROUP
350
B9
3
ACAD_LAYOUT
350
BA
3
ACAD_MLINESTYLE
350
BE
0
DICTIONARY
5
B9
330
B8
100
AcDbDictionary
280
0
281
1
0
DICTIONARY
5
BA
330
B8
100
AcDbDictionary
280
0
281
1
3
Layout1
350
1E
3
Layout2
350
26
3
Model
350
22
0
DICTIONARY
5
BE
330
B8
100
AcDbDictionary
280
0
281
1
3
Standard
350
18
0
LAYOUT
5
1E
330
BA
100
AcDbPlotSettings
1

2
none_device
4

6

40
0.0
41
0.0
42
0.0
43
0.0
44
0.0
45
0.0
46
0.0
47
0.0
48
0.0
49
0.0
140
0.0
141
0.0
142
1.0
143
1.0
70
688
72
0
73
0
74
5
7

75
16
147
1.0
148
0.0
149
0.0
100
AcDbLayout
1
Layout1
70
1
71
1
10
-7.5
20
-7.5
11
12.0
21
9.0
12
0.0
22
0.0
32
0.0
14
100000000000000000000.0
24
100000000000000000000.0
34
100000000000000000000.0
15
-100000000000000000000.0
25
-100000000000000000000.0
35
-100000000000000000000.0
146
0.0
13
0.0
23
0.0
33
0.0
16
1.0
26
0.0
36
0.0
17
0.0
27
1.0
37
0.0
76
0
330
1B
0
LAYOUT
5
26
330
BA
100
AcDbPlotSettings
1

2
none_device
4

6

40
0.0
41
0.0
42
0.0
43
0.0
44
0.0
45
0.0
46
0.0
47
0.0
48
0.0
49
0.0
140
0.0
141
0.0
142
1.0
143
1.0
70
688
72
0
73
0
74
5
7

75
16
147
1.0
148
0.0
149
0.0
100
AcDbLayout
1
Layout2
70
1
71
2
10
-7.5
20
-7.5
11
0.0
21
0.0
12
0.0
22
0.0
32
0.0
14
0.0
24
0.0
34
0.0
15
0.0
25
0.0
35
0.0
146
0.0
13
0.0
23
0.0
33
0.0
16
1.0
26
0.0
36
0.0
17
0.0
27
1.0
37
0.0
76
0
330
23
0
LAYOUT
5
22
330
BA
100
AcDbPlotSettings
1

2
none_device
4
ANSI_A_(11.00_x_8.50_Inches)
6

40
6.35
41
19.05
42
6.35000508
43
19.05000254
44
279.4
45
215.9
46
0.0
47
0.0
48
0.0
49
0.0
140
0.0
141
0.0
142
1.8462031041
143
1.0
70
1696
72
0
73
0
74
5
7

75
16
147
1.8462031041
148
-39.4088153714
149
0.0
100
AcDbLayout
1
Model
70
1
71
3
10
-7.5
20
-7.5
11
12.0
21
9.0
12
0.0
22
0.0
32
0.0
14
-2.2790016931
24
-2.2790016931
34
0.0
15
2.2790016931
25
2.2790016931
35
0.0
146
0.0
13
0.0
23
0.0
33
0.0
16
1.0
26
0.0
36
0.0
17
0.0
27
1.0
37
0.0
76
0
330
1F
0
MLINESTYLE
5
18
330
BE
100
AcDbMlineStyle
2
Standard
70
0
3

62
256
51
90.0
52
90.0
71
2
49
-0.5
62
256
6
ByLayer
49
0.5
62
256
6
ByLayer
0
ENDSEC
0
EOF
